# xmcd CD database file
#
# Track frame offsets:
#	150
#	10799
#	23785
#	38165
#	47993
#	58219
#	73674
#	84171
#	93793
#	105252
#	115470
#	127069
#
# Disc length: 1873 seconds
#
# Revision: 2
# Processed by: cddbd v1.5.2PL0 Copyright (c) Steve Scherf et al.
# Submitted via: CDex 1.50beta10
#
DISCID=97074f0c
DTITLE=Jim Reeves - The Best Of Jim Reeves
DYEAR=1964
DGENRE=Country
TTITLE0=He'll Have To Go
TTITLE1=Four Walls
TTITLE2=Guilty
TTITLE3=Blue Boy
TTITLE4=I'm Gettin' Better
TTITLE5=The Blizzard
TTITLE6=Am I Losing You?
TTITLE7=Billy Bayou
TTITLE8=Anna Marie
TTITLE9=Stand At Your window
TTITLE10=Adios Amigo
TTITLE11=Danny Boy
EXTD=YEAR: 1964
EXTT0=
EXTT1=
EXTT2=
EXTT3=
EXTT4=
EXTT5=
EXTT6=
EXTT7=
EXTT8=
EXTT9=
EXTT10=
EXTT11=
PLAYORDER=
